<svg width="210" height="300" viewBox="0 0 210 300" fill="none" xmlns="http://www.w3.org/2000/svg">
<rect width="210" height="300" rx="8" fill="white" fill-opacity="0.14"/>
<path d="M91.3125 135.9L95 130H115L121.25 140H130V168.75H123.905" stroke="white" stroke-width="1.5"/>
<path d="M112.06 157.045C113.296 155.359 113.888 153.286 113.728 151.201C113.568 149.117 112.667 147.159 111.187 145.681C109.708 144.203 107.749 143.304 105.664 143.146C103.58 142.988 101.507 143.582 99.8225 144.82M77.5 122.5L132.5 177.5M85.47 140H80V168.75H113.75" stroke="white" stroke-width="1.5"/>
<path d="M96.575 149.513C96.1545 151.02 96.1454 152.612 96.5486 154.123C96.9518 155.635 97.7527 157.011 98.868 158.109C99.9832 159.206 101.372 159.985 102.89 160.363C104.408 160.742 106 160.707 107.5 160.263" stroke="white" stroke-width="1.5"/>
</svg>
